HIERARCHY
ROOT Hips
{
	OFFSET 4.959312 106.228157 -0.573475
	CHANNELS 6 Xposition Yposition Zposition Xrotation Yrotation Zrotation
	JOINT Chest
	{
		OFFSET 0.388287 13.636505 0.221825
		CHANNELS 3 Xrotation Yrotation Zrotation
		JOINT Chest2
		{
			OFFSET -1.460793 21.235420 2.447352
			CHANNELS 3 Xrotation Yrotation Zrotation
			JOINT Chest3
			{
				OFFSET -0.608601 14.893127 -0.802664
				CHANNELS 3 Xrotation Yrotation Zrotation
				JOINT Neck
				{
					OFFSET 0.677444 17.253326 0.692765
					CHANNELS 3 Xrotation Yrotation Zrotation
					JOINT Head
					{
						OFFSET -0.596929 10.313324 1.762555
						CHANNELS 3 Xrotation Yrotation Zrotation
						End Site
						{
							OFFSET -0.587723 10.325806 1.691123
						}
					}
				}
				JOINT LeftCollar
				{
					OFFSET 4.877805 12.960281 3.168969
					CHANNELS 3 Xrotation Yrotation Zrotation
					JOINT LeftUpArm
					{
						OFFSET 14.711531 -5.678497 -7.734663
						CHANNELS 3 Xrotation Yrotation Zrotation
						JOINT LeftLowArm
						{
							OFFSET 11.728270 -31.614136 -1.649800
							CHANNELS 3 Xrotation Yrotation Zrotation
							JOINT LeftHand
							{
								OFFSET 11.155125 -24.028870 14.111110
								CHANNELS 3 Xrotation Yrotation Zrotation
								End Site
								{
									OFFSET 2.438019 -5.251656 3.084053
								}
							}
						}
					}
				}
				JOINT RightCollar
				{
					OFFSET -3.519431 13.270935 3.647540
					CHANNELS 3 Xrotation Yrotation Zrotation
					JOINT RightUpArm
					{
						OFFSET -16.529888 -0.592575 -5.908308
						CHANNELS 3 Xrotation Yrotation Zrotation
						JOINT RightLowArm
						{
							OFFSET -32.033710 -2.226852 10.421955
							CHANNELS 3 Xrotation Yrotation Zrotation
							JOINT RightHand
							{
								OFFSET -26.295815 -1.596573 14.385266
								CHANNELS 3 Xrotation Yrotation Zrotation
								End Site
								{
									OFFSET -5.747208 -0.348953 3.144054
								}
							}
						}
					}
				}
			}
		}
	}
	JOINT LeftUpLeg
	{
		OFFSET 10.014166 -0.281487 -0.237452
		CHANNELS 3 Xrotation Yrotation Zrotation
		JOINT LeftLowLeg
		{
			OFFSET 0.838034 -46.702873 -7.882161
			CHANNELS 3 Xrotation Yrotation Zrotation
			JOINT LeftFoot
			{
				OFFSET -1.401588 -39.789879 -20.380600
				CHANNELS 3 Xrotation Yrotation Zrotation
				JOINT LeftToe
				{
					OFFSET -2.957606 -19.398344 13.210458
					CHANNELS 3 Xrotation Yrotation Zrotation
					End Site
					{
						OFFSET -0.712576 -6.752302 22.659603
					}
				}
			}
		}
	}
	JOINT RightUpLeg
	{
		OFFSET -10.014175 0.281288 0.237449
		CHANNELS 3 Xrotation Yrotation Zrotation
		JOINT RightLowLeg
		{
			OFFSET -1.206153 -44.789093 15.378345
			CHANNELS 3 Xrotation Yrotation Zrotation
			JOINT RightFoot
			{
				OFFSET 0.387726 -43.631554 -9.834440
				CHANNELS 3 Xrotation Yrotation Zrotation
				JOINT RightToe
				{
					OFFSET -2.733888 -17.488874 15.691453
					CHANNELS 3 Xrotation Yrotation Zrotation
					End Site
					{
						OFFSET -5.794279 -3.481616 22.668499
					}
				}
			}
		}
	}
}
MOTION
Frames: 10
Frame Time: 0.033333
15.355695 96.409531 3.010205 14.170298 24.936607 -18.147480 7.305632 -0.298027 1.993094 -5.693323 -4.418866 7.135426 -2.519175 6.188106 8.045142 -6.582964 -19.243558 17.332640 0.000001 0.000000 0.000001 8.724371 -18.795299 28.935495 -80.794943 -29.083680 -52.897127 -14.961546 -13.665677 -6.690166 -0.000000 -0.000002 0.000000 11.006335 28.290877 3.286689 -15.267650 70.213252 18.340289 -2.209297 36.425016 -60.158360 -0.000002 0.000001 -0.000003 -44.322194 -11.797502 21.000424 55.331301 -10.841722 -32.741516 11.386759 19.844304 12.743055 0.000001 -0.000000 0.000000 -22.318639 1.258885 11.442134 12.369574 1.908846 16.271710 -16.809222 -29.046295 -12.979383 -0.000001 0.000000 -0.000002 
15.346763 96.363182 3.054306 13.513159 25.260326 -18.173539 8.161599 -0.317834 2.374981 -5.870041 -4.401417 7.113725 -2.455504 6.554265 8.151829 -6.753775 -19.186112 17.274342 -0.000002 0.000000 -0.000000 8.611777 -18.557986 29.058189 -81.612196 -29.365411 -53.197908 -15.034066 -13.801426 -7.243094 0.000006 0.000002 0.000001 11.072894 28.420579 3.343398 -14.743426 69.969817 17.844112 -2.866820 35.320134 -60.706708 -0.000003 0.000003 0.000003 -44.077509 -11.762847 21.022865 55.762173 -10.826701 -32.212402 11.562242 19.600688 12.634052 0.000003 0.000001 -0.000002 -21.671589 1.283356 11.711044 12.261818 1.796183 16.282869 -16.833688 -28.994023 -12.986317 0.000000 0.000000 -0.000000 
15.337860 96.309883 3.094037 13.411387 25.272368 -18.253819 7.889102 -0.323710 2.395356 -5.565229 -4.556783 7.377314 -2.618884 6.539999 7.858817 -6.370133 -19.128360 17.319003 -0.000001 0.000000 -0.000000 8.669158 -18.434500 29.354586 -80.971018 -28.895334 -53.310631 -15.371686 -13.918074 -7.513120 0.000003 0.000002 0.000002 11.089674 28.583973 3.507385 -15.645346 69.974441 19.421496 -2.854225 35.628828 -60.974246 0.000002 -0.000000 -0.000000 -44.223760 -11.814564 20.992260 56.042826 -10.982185 -32.168183 11.298620 19.694260 12.730471 -0.000002 -0.000001 -0.000003 -22.035135 1.292596 11.545433 12.229916 1.837220 16.441124 -16.861345 -29.315712 -13.183350 -0.000001 0.000000 -0.000001 
15.327055 96.262131 3.131594 12.947934 25.158956 -18.291183 8.237007 -0.330405 2.471478 -5.853175 -4.517867 7.257888 -2.506953 6.565155 8.007802 -5.988979 -19.220980 17.398879 -0.000001 0.000000 -0.000000 8.539378 -18.094119 29.388941 -81.514100 -29.111940 -53.370675 -15.166326 -13.797002 -8.186639 0.000005 0.000000 0.000002 11.174490 28.860811 3.552101 -15.180475 69.448148 19.075115 -3.020001 35.427273 -60.818217 -0.000003 0.000001 -0.000000 -43.933928 -11.879359 21.290946 56.169225 -10.988495 -32.236789 11.355939 19.399689 12.558490 0.000001 0.000005 -0.000003 -21.543832 1.291463 12.061516 12.315657 1.747126 16.226402 -16.523134 -29.074756 -12.938228 -0.000001 0.000000 -0.000000 
15.307867 96.215981 3.168731 12.652861 25.193993 -18.316913 8.549253 -0.331984 2.480967 -5.752988 -4.446991 7.178058 -2.717292 7.232089 8.243047 -6.201771 -19.462265 17.485537 -0.000001 0.000000 -0.000001 8.447870 -17.768440 29.292561 -80.894104 -28.459984 -53.668464 -15.825705 -14.140481 -9.018182 0.000003 -0.000002 0.000000 11.074435 28.318220 3.449055 -15.082091 70.006126 18.703918 -3.090085 35.214147 -60.784408 -0.000001 -0.000000 0.000002 -43.821193 -11.947863 21.490552 56.276179 -10.972024 -32.221629 11.372461 19.578182 12.755259 -0.000000 0.000002 0.000001 -21.508674 1.301720 12.204302 12.532652 1.734837 16.240863 -16.534005 -28.864369 -12.872536 -0.000000 0.000002 -0.000001 
15.285135 96.166679 3.198935 12.523947 25.128531 -18.384164 8.493423 -0.314716 2.358017 -6.238699 -4.398933 7.048819 -2.360124 6.803967 8.342479 -5.781718 -19.512273 17.590785 -0.000002 0.000001 0.000003 8.912145 -18.588199 30.034613 -81.702497 -29.368348 -53.366102 -15.214800 -14.081860 -7.334905 0.000001 -0.000002 -0.000000 11.156312 28.619343 3.708987 -14.042186 69.832366 17.300695 -2.399273 35.733094 -60.568089 -0.000002 0.000007 -0.000001 -43.728398 -12.033179 21.746942 56.245098 -10.928442 -32.468602 11.100226 19.616798 12.823053 -0.000000 0.000001 -0.000000 -21.557651 1.298099 12.453857 12.675484 1.737322 16.078224 -16.440368 -28.854247 -12.883969 0.000001 0.000000 -0.000000 
15.266971 96.124977 3.222712 13.035838 25.723389 -18.459312 8.055074 -0.315272 2.422222 -5.794482 -4.488452 7.206678 -2.641031 6.652959 8.044003 -6.110932 -19.678429 17.597544 0.000001 0.000000 -0.000001 8.826672 -18.601728 29.607111 -80.647780 -28.979106 -53.115625 -16.155930 -14.437398 -8.389575 -0.000002 0.000001 -0.000000 11.190827 28.651134 3.844402 -14.661633 70.321585 17.880298 -1.955424 36.271091 -60.783069 0.000003 0.000005 0.000002 -44.222019 -11.913977 21.291216 56.461694 -10.880763 -31.946212 11.052163 19.504527 12.742941 -0.000002 -0.000002 -0.000000 -21.420204 1.306224 12.282393 12.042265 1.560615 16.071579 -16.581930 -29.194489 -13.129218 -0.000001 0.000001 -0.000002 
15.242437 96.080879 3.247479 13.216967 25.824112 -18.458392 7.908959 -0.329712 2.393370 -6.050862 -4.434600 7.104971 -2.418463 6.815104 8.074016 -6.190634 -19.850423 17.672349 0.000001 0.000001 -0.000001 8.848995 -18.442197 29.545274 -80.817906 -29.008476 -53.328420 -16.658439 -14.918760 -8.909181 0.000005 0.000000 -0.000003 11.232699 28.518043 3.758533 -14.579708 70.886142 17.614389 -1.023382 37.357668 -60.873706 -0.000001 0.000005 -0.000003 -44.617296 -11.936683 21.094332 56.488229 -10.917609 -32.056851 10.888573 19.534204 12.869979 -0.000002 -0.000001 -0.000001 -21.777008 1.324437 12.009735 12.164568 1.603522 16.313062 -16.479484 -29.239384 -13.123021 -0.000000 0.000002 -0.000001 
15.214527 96.041718 3.278414 13.245938 25.791047 -18.428383 7.913686 -0.325011 2.376365 -5.668593 -4.479389 7.170100 -2.641358 7.199412 8.156134 -6.104006 -19.826535 17.562892 -0.000000 0.000001 -0.000001 8.423177 -17.770028 29.026863 -80.117695 -28.188852 -53.662563 -17.417899 -15.260359 -10.456464 0.000001 -0.000001 0.000002 11.190773 28.575548 4.043981 -15.536662 70.486050 19.377745 -1.013935 37.034460 -61.699086 -0.000002 0.000005 0.000006 -44.782733 -11.879424 21.047808 56.902603 -10.992178 -31.709594 10.789475 19.133861 12.689608 0.000001 0.000001 -0.000002 -21.700981 1.253633 12.196710 12.131660 1.437581 15.955204 -16.120536 -29.146364 -12.989286 -0.000002 0.000002 -0.000001 
15.185830 96.008690 3.309005 12.784869 25.653648 -18.361224 8.036255 -0.307371 2.145752 -5.838155 -4.505089 7.166766 -2.414347 7.190300 8.399276 -5.617770 -19.783329 17.576908 -0.000001 -0.000000 -0.000001 8.247044 -17.592126 28.836126 -79.541637 -27.895845 -53.500868 -17.672672 -15.225178 -11.490740 0.000001 0.000002 0.000001 11.090558 28.669043 4.544434 -16.539137 70.168466 20.955147 -0.478886 37.781079 -61.423700 -0.000002 0.000001 0.000001 -44.525583 -11.867511 21.271852 57.068068 -11.087774 -31.587945 10.973788 19.494950 12.754428 -0.000002 0.000002 0.000001 -21.375777 1.237135 12.504276 12.354909 1.565893 15.873134 -16.393584 -29.033451 -13.092843 -0.000001 0.000002 -0.000001 
